<svg xmlns="http://www.w3.org/2000/svg" xmlns:xlink="http://www.w3.org/1999/xlink" width="500" zoomAndPan="magnify" viewBox="0 0 375 374.999991" height="500" preserveAspectRatio="xMidYMid meet" version="1.0"><defs><g/><clipPath id="5e10bdcaf2"><path d="M 43.5 153.535156 L 114.011719 153.535156 L 114.011719 224.050781 L 43.5 224.050781 Z M 43.5 153.535156 " clip-rule="nonzero"/></clipPath><clipPath id="0d3fbfce47"><path d="M 63 153.535156 L 94.511719 153.535156 C 105.28125 153.535156 114.011719 162.265625 114.011719 173.035156 L 114.011719 204.550781 C 114.011719 215.320312 105.28125 224.050781 94.511719 224.050781 L 63 224.050781 C 52.230469 224.050781 43.5 215.320312 43.5 204.550781 L 43.5 173.035156 C 43.5 162.265625 52.230469 153.535156 63 153.535156 Z M 63 153.535156 " clip-rule="nonzero"/></clipPath><clipPath id="7f4e838311"><path d="M 50.511719 167.652344 L 64 167.652344 L 64 209.652344 L 50.511719 209.652344 Z M 50.511719 167.652344 " clip-rule="nonzero"/></clipPath><clipPath id="c88c327968"><path d="M 94 167.652344 L 107.117188 167.652344 L 107.117188 209.652344 L 94 209.652344 Z M 94 167.652344 " clip-rule="nonzero"/></clipPath></defs><g clip-path="url(#5e10bdcaf2)"><g clip-path="url(#0d3fbfce47)"><path fill="#1649ff" d="M 43.5 153.535156 L 114.011719 153.535156 L 114.011719 224.050781 L 43.5 224.050781 Z M 43.5 153.535156 " fill-opacity="1" fill-rule="nonzero"/></g></g><g clip-path="url(#7f4e838311)"><path fill="#efefef" d="M 62.261719 172.351562 L 63.4375 172.351562 L 63.4375 167.652344 L 62.261719 167.652344 C 58.371094 167.652344 55.214844 170.808594 55.214844 174.699219 L 55.214844 182.921875 C 55.214844 183.660156 54.867188 184.355469 54.277344 184.800781 L 51.457031 186.914062 C 50.894531 187.335938 50.550781 187.992188 50.519531 188.695312 C 50.492188 189.398438 50.777344 190.082031 51.304688 190.546875 L 54.425781 193.320312 C 54.929688 193.765625 55.214844 194.40625 55.214844 195.078125 L 55.214844 202.886719 C 55.214844 206.777344 58.371094 209.933594 62.261719 209.933594 L 63.4375 209.933594 L 63.4375 205.234375 L 62.261719 205.234375 C 60.964844 205.234375 59.914062 204.183594 59.914062 202.886719 L 59.914062 195.078125 C 59.914062 193.066406 59.050781 191.148438 57.546875 189.808594 L 56.574219 188.945312 L 57.09375 188.558594 C 58.871094 187.226562 59.914062 185.136719 59.914062 182.921875 L 59.914062 174.699219 C 59.914062 173.402344 60.964844 172.351562 62.261719 172.351562 Z M 62.261719 172.351562 " fill-opacity="1" fill-rule="evenodd"/></g><g clip-path="url(#c88c327968)"><path fill="#efefef" d="M 95.472656 172.351562 L 94.300781 172.351562 L 94.300781 167.652344 L 95.472656 167.652344 C 99.367188 167.652344 102.519531 170.808594 102.519531 174.699219 L 102.519531 182.921875 C 102.519531 183.660156 102.867188 184.355469 103.460938 184.800781 L 106.277344 186.914062 C 106.84375 187.335938 107.1875 187.992188 107.214844 188.695312 C 107.246094 189.398438 106.957031 190.082031 106.429688 190.546875 L 103.308594 193.320312 C 102.808594 193.765625 102.519531 194.40625 102.519531 195.078125 L 102.519531 202.886719 C 102.519531 206.777344 99.367188 209.933594 95.472656 209.933594 L 94.300781 209.933594 L 94.300781 205.234375 L 95.472656 205.234375 C 96.769531 205.234375 97.824219 204.183594 97.824219 202.886719 L 97.824219 195.078125 C 97.824219 193.066406 98.683594 191.148438 100.1875 189.808594 L 101.160156 188.945312 L 100.640625 188.558594 C 98.867188 187.226562 97.824219 185.136719 97.824219 182.921875 L 97.824219 174.699219 C 97.824219 173.402344 96.769531 172.351562 95.472656 172.351562 Z M 95.472656 172.351562 " fill-opacity="1" fill-rule="evenodd"/></g><g fill="#292929" fill-opacity="1"><g transform="translate(126.685412, 206.381574)"><g><path d="M 24.796875 -10.75 C 24.796875 -7.21875 23.550781 -4.441406 21.0625 -2.421875 C 18.582031 -0.410156 15.546875 0.59375 11.953125 0.59375 C 7.378906 0.59375 3.460938 -0.367188 0.203125 -2.296875 L 2.546875 -7.84375 C 5.148438 -5.414062 8.066406 -4.203125 11.296875 -4.203125 C 12.992188 -4.203125 14.453125 -4.664062 15.671875 -5.59375 C 16.890625 -6.53125 17.5 -7.832031 17.5 -9.5 C 17.5 -10.695312 17.097656 -11.757812 16.296875 -12.6875 C 15.492188 -13.625 14.5 -14.359375 13.3125 -14.890625 C 12.132812 -15.429688 10.84375 -16.054688 9.4375 -16.765625 C 8.039062 -17.484375 6.75 -18.207031 5.5625 -18.9375 C 4.382812 -19.675781 3.394531 -20.71875 2.59375 -22.0625 C 1.800781 -23.414062 1.40625 -24.976562 1.40625 -26.75 C 1.40625 -30.1875 2.59375 -32.785156 4.96875 -34.546875 C 7.351562 -36.316406 10.53125 -37.203125 14.5 -37.203125 C 16 -37.203125 17.734375 -36.898438 19.703125 -36.296875 C 21.671875 -35.703125 23.171875 -35.003906 24.203125 -34.203125 L 20.75 -29.90625 C 18.882812 -31.570312 16.582031 -32.40625 13.84375 -32.40625 C 12.445312 -32.40625 11.238281 -32.035156 10.21875 -31.296875 C 9.207031 -30.566406 8.703125 -29.535156 8.703125 -28.203125 C 8.703125 -27.035156 9.097656 -26.007812 9.890625 -25.125 C 10.691406 -24.238281 11.6875 -23.53125 12.875 -23 C 14.0625 -22.46875 15.351562 -21.832031 16.75 -21.09375 C 18.144531 -20.363281 19.4375 -19.625 20.625 -18.875 C 21.8125 -18.125 22.800781 -17.046875 23.59375 -15.640625 C 24.394531 -14.242188 24.796875 -12.613281 24.796875 -10.75 Z M 24.796875 -10.75 "/></g></g></g><g fill="#292929" fill-opacity="1"><g transform="translate(151.681424, 206.381574)"><g><path d="M 31.453125 0 L 24.046875 0 L 20.453125 -10.5 L 9.65625 -10.5 L 5.90625 0 L 0.09375 0 L 13.046875 -36.59375 L 18.5 -36.59375 Z M 18.796875 -15.40625 C 17.203125 -20.300781 15.9375 -24.46875 15 -27.90625 C 13.863281 -23.738281 12.644531 -19.570312 11.34375 -15.40625 Z M 18.796875 -15.40625 "/></g></g></g><g fill="#292929" fill-opacity="1"><g transform="translate(182.426535, 206.381574)"><g><path d="M 24.59375 0 L 3.296875 0 L 3.296875 -33.546875 C 3.296875 -33.578125 3.242188 -33.828125 3.140625 -34.296875 C 3.046875 -34.765625 2.941406 -35.25 2.828125 -35.75 C 2.710938 -36.25 2.65625 -36.53125 2.65625 -36.59375 L 10.25 -36.59375 L 10.25 -4.953125 L 24.59375 -4.953125 Z M 24.59375 0 "/></g></g></g><g fill="#292929" fill-opacity="1"><g transform="translate(207.32256, 206.381574)"><g><path d="M 24.09375 -31.65625 L 10.296875 -31.65625 L 10.296875 -21.296875 L 20.953125 -21.296875 L 20.953125 -16.34375 L 10.296875 -16.34375 L 10.296875 0 L 3.34375 0 L 3.34375 -33.546875 C 3.34375 -33.578125 3.285156 -33.828125 3.171875 -34.296875 C 3.054688 -34.765625 2.941406 -35.25 2.828125 -35.75 C 2.710938 -36.25 2.65625 -36.53125 2.65625 -36.59375 L 24.09375 -36.59375 Z M 24.09375 -31.65625 "/></g></g></g><g fill="#292929" fill-opacity="1"><g transform="translate(232.018611, 206.381574)"><g><path d="M 35.90625 -18.25 C 35.90625 -12.75 34.320312 -8.238281 31.15625 -4.71875 C 27.988281 -1.207031 23.6875 0.546875 18.25 0.546875 C 12.8125 0.546875 8.566406 -1.222656 5.515625 -4.765625 C 2.472656 -8.316406 0.953125 -12.84375 0.953125 -18.34375 C 0.953125 -23.882812 2.484375 -28.40625 5.546875 -31.90625 C 8.617188 -35.40625 12.867188 -37.15625 18.296875 -37.15625 C 23.867188 -37.15625 28.195312 -35.410156 31.28125 -31.921875 C 34.363281 -28.441406 35.90625 -23.882812 35.90625 -18.25 Z M 28.5 -18.046875 C 28.5 -19.816406 28.332031 -21.492188 28 -23.078125 C 27.664062 -24.660156 27.128906 -26.175781 26.390625 -27.625 C 25.660156 -29.070312 24.601562 -30.226562 23.21875 -31.09375 C 21.84375 -31.96875 20.21875 -32.40625 18.34375 -32.40625 C 16.507812 -32.40625 14.910156 -31.992188 13.546875 -31.171875 C 12.179688 -30.359375 11.128906 -29.257812 10.390625 -27.875 C 9.660156 -26.488281 9.128906 -25.019531 8.796875 -23.46875 C 8.460938 -21.925781 8.296875 -20.285156 8.296875 -18.546875 C 8.296875 -16.785156 8.460938 -15.113281 8.796875 -13.53125 C 9.128906 -11.945312 9.660156 -10.425781 10.390625 -8.96875 C 11.128906 -7.519531 12.191406 -6.363281 13.578125 -5.5 C 14.960938 -4.632812 16.585938 -4.203125 18.453125 -4.203125 C 20.285156 -4.203125 21.882812 -4.609375 23.25 -5.421875 C 24.613281 -6.242188 25.660156 -7.34375 26.390625 -8.71875 C 27.128906 -10.101562 27.664062 -11.570312 28 -13.125 C 28.332031 -14.675781 28.5 -16.316406 28.5 -18.046875 Z M 28.5 -18.046875 "/></g></g></g><g fill="#292929" fill-opacity="1"><g transform="translate(268.062909, 206.381574)"><g><path d="M 30.84375 0 L 23.046875 0 L 12.90625 -16.296875 L 10.15625 -16.296875 L 10.15625 0 L 3.296875 0 L 3.296875 -33.546875 C 3.296875 -33.617188 3.175781 -34.113281 2.9375 -35.03125 C 2.707031 -35.945312 2.578125 -36.46875 2.546875 -36.59375 L 15.09375 -36.59375 C 18.800781 -36.59375 21.785156 -35.8125 24.046875 -34.25 C 26.316406 -32.6875 27.453125 -30.132812 27.453125 -26.59375 C 27.453125 -24.53125 26.664062 -22.597656 25.09375 -20.796875 C 23.53125 -18.992188 21.71875 -17.84375 19.65625 -17.34375 Z M 20.203125 -26.65625 C 20.203125 -28.21875 19.648438 -29.429688 18.546875 -30.296875 C 17.453125 -31.160156 16.085938 -31.59375 14.453125 -31.59375 L 10.15625 -31.59375 L 10.15625 -21.203125 L 13.34375 -21.203125 C 17.914062 -21.203125 20.203125 -23.019531 20.203125 -26.65625 Z M 20.203125 -26.65625 "/></g></g></g><g fill="#292929" fill-opacity="1"><g transform="translate(296.808337, 206.381574)"><g><path d="M 34 -18.25 C 34 -12.644531 32.28125 -8.144531 28.84375 -4.75 C 25.675781 -1.582031 21.507812 0 16.34375 0 L 3.34375 0 L 3.34375 -33.546875 C 3.34375 -33.578125 3.21875 -34.066406 2.96875 -35.015625 C 2.71875 -35.972656 2.578125 -36.5 2.546875 -36.59375 L 16.40625 -36.59375 C 21.90625 -36.59375 26.210938 -34.914062 29.328125 -31.5625 C 32.441406 -28.21875 34 -23.78125 34 -18.25 Z M 26.59375 -18.046875 C 26.59375 -20.453125 26.257812 -22.632812 25.59375 -24.59375 C 24.925781 -26.5625 23.769531 -28.226562 22.125 -29.59375 C 20.476562 -30.96875 18.421875 -31.65625 15.953125 -31.65625 L 10.25 -31.65625 L 10.25 -4.953125 L 16.046875 -4.953125 C 17.878906 -4.953125 19.492188 -5.304688 20.890625 -6.015625 C 22.296875 -6.734375 23.398438 -7.71875 24.203125 -8.96875 C 25.003906 -10.21875 25.601562 -11.601562 26 -13.125 C 26.394531 -14.644531 26.59375 -16.285156 26.59375 -18.046875 Z M 26.59375 -18.046875 "/></g></g></g><g fill="#ffffff" fill-opacity="1"><g transform="translate(68.400638, 203.006559)"><g><path d="M 20.828125 -9.03125 C 20.828125 -6.0625 19.785156 -3.726562 17.703125 -2.03125 C 15.617188 -0.34375 13.0625 0.5 10.03125 0.5 C 6.195312 0.5 2.910156 -0.3125 0.171875 -1.9375 L 2.140625 -6.59375 C 4.328125 -4.550781 6.773438 -3.53125 9.484375 -3.53125 C 10.921875 -3.53125 12.148438 -3.921875 13.171875 -4.703125 C 14.191406 -5.484375 14.703125 -6.578125 14.703125 -7.984375 C 14.703125 -8.984375 14.363281 -9.875 13.6875 -10.65625 C 13.019531 -11.445312 12.1875 -12.066406 11.1875 -12.515625 C 10.195312 -12.960938 9.113281 -13.488281 7.9375 -14.09375 C 6.757812 -14.695312 5.671875 -15.304688 4.671875 -15.921875 C 3.679688 -16.535156 2.847656 -17.410156 2.171875 -18.546875 C 1.503906 -19.679688 1.171875 -20.988281 1.171875 -22.46875 C 1.171875 -25.351562 2.171875 -27.535156 4.171875 -29.015625 C 6.179688 -30.503906 8.851562 -31.25 12.1875 -31.25 C 13.4375 -31.25 14.890625 -30.992188 16.546875 -30.484375 C 18.203125 -29.984375 19.460938 -29.398438 20.328125 -28.734375 L 17.4375 -25.109375 C 15.863281 -26.515625 13.929688 -27.21875 11.640625 -27.21875 C 10.460938 -27.21875 9.445312 -26.910156 8.59375 -26.296875 C 7.738281 -25.679688 7.3125 -24.8125 7.3125 -23.6875 C 7.3125 -22.707031 7.644531 -21.84375 8.3125 -21.09375 C 8.988281 -20.351562 9.820312 -19.757812 10.8125 -19.3125 C 11.8125 -18.863281 12.894531 -18.332031 14.0625 -17.71875 C 15.238281 -17.101562 16.320312 -16.476562 17.3125 -15.84375 C 18.3125 -15.21875 19.144531 -14.316406 19.8125 -13.140625 C 20.488281 -11.960938 20.828125 -10.59375 20.828125 -9.03125 Z M 20.828125 -9.03125 "/></g></g></g></svg>