<svg xmlns="http://www.w3.org/2000/svg" xmlns:xlink="http://www.w3.org/1999/xlink" zoomAndPan="magnify" preserveAspectRatio="xMidYMid meet" version="1.0" viewBox="-37.5 -37.5 450 450"><defs><g/><clipPath id="9924ecaf2f"><path d="M 91.65625 146.84375 L 106.878906 146.84375 L 106.878906 176.226562 L 91.65625 176.226562 Z M 91.65625 146.84375 " clip-rule="nonzero"/></clipPath><clipPath id="007fc55268"><path d="M 86 165 L 100 165 L 100 176.84375 L 86 176.84375 Z M 86 165 " clip-rule="nonzero"/></clipPath><clipPath id="153825460b"><path d="M 54.527344 141 L 91 141 L 91 184 L 54.527344 184 Z M 54.527344 141 " clip-rule="nonzero"/></clipPath><clipPath id="4c86799bf6"><path d="M 103 142 L 139.292969 142 L 139.292969 184 L 103 184 Z M 103 142 " clip-rule="nonzero"/></clipPath></defs><rect x="-37.5" width="450" fill="#ffffff" y="-37.499999" height="449.999989" fill-opacity="1"/><rect x="-37.5" width="450" fill="#ffffff" y="-37.499999" height="449.999989" fill-opacity="1"/><g fill="#299715" fill-opacity="1"><g transform="translate(141.93833, 174.012308)"><g><path d="M 9.21875 0.3125 C 7.738281 0.3125 6.425781 0.128906 5.28125 -0.234375 C 4.132812 -0.609375 3.0625 -1.238281 2.0625 -2.125 C 1.507812 -2.613281 1.234375 -3.15625 1.234375 -3.75 C 1.234375 -4.21875 1.40625 -4.628906 1.75 -4.984375 C 2.09375 -5.347656 2.515625 -5.53125 3.015625 -5.53125 C 3.398438 -5.53125 3.75 -5.40625 4.0625 -5.15625 C 4.875 -4.476562 5.671875 -3.984375 6.453125 -3.671875 C 7.234375 -3.367188 8.15625 -3.21875 9.21875 -3.21875 C 10.363281 -3.21875 11.347656 -3.472656 12.171875 -3.984375 C 13.003906 -4.503906 13.421875 -5.140625 13.421875 -5.890625 C 13.421875 -6.816406 13.007812 -7.539062 12.1875 -8.0625 C 11.375 -8.582031 10.078125 -8.976562 8.296875 -9.25 C 3.804688 -9.90625 1.5625 -11.992188 1.5625 -15.515625 C 1.5625 -16.804688 1.898438 -17.925781 2.578125 -18.875 C 3.253906 -19.832031 4.175781 -20.5625 5.34375 -21.0625 C 6.507812 -21.5625 7.8125 -21.8125 9.25 -21.8125 C 10.539062 -21.8125 11.753906 -21.613281 12.890625 -21.21875 C 14.023438 -20.832031 14.972656 -20.320312 15.734375 -19.6875 C 16.328125 -19.21875 16.625 -18.675781 16.625 -18.0625 C 16.625 -17.59375 16.445312 -17.175781 16.09375 -16.8125 C 15.75 -16.457031 15.34375 -16.28125 14.875 -16.28125 C 14.5625 -16.28125 14.28125 -16.375 14.03125 -16.5625 C 13.5 -16.988281 12.757812 -17.378906 11.8125 -17.734375 C 10.863281 -18.097656 10.007812 -18.28125 9.25 -18.28125 C 7.957031 -18.28125 6.957031 -18.035156 6.25 -17.546875 C 5.539062 -17.066406 5.1875 -16.441406 5.1875 -15.671875 C 5.1875 -14.785156 5.550781 -14.117188 6.28125 -13.671875 C 7.007812 -13.222656 8.148438 -12.851562 9.703125 -12.5625 C 11.460938 -12.257812 12.867188 -11.863281 13.921875 -11.375 C 14.984375 -10.894531 15.78125 -10.238281 16.3125 -9.40625 C 16.84375 -8.582031 17.109375 -7.484375 17.109375 -6.109375 C 17.109375 -4.816406 16.742188 -3.6875 16.015625 -2.71875 C 15.285156 -1.75 14.316406 -1 13.109375 -0.46875 C 11.898438 0.0507812 10.601562 0.3125 9.21875 0.3125 Z M 9.21875 0.3125 "/></g></g></g><g fill="#299715" fill-opacity="1"><g transform="translate(160.268056, 174.012308)"><g><path d="M 16.734375 -8.59375 C 16.722656 -8.101562 16.53125 -7.703125 16.15625 -7.390625 C 15.789062 -7.085938 15.363281 -6.9375 14.875 -6.9375 L 4.734375 -6.9375 C 4.972656 -5.726562 5.53125 -4.78125 6.40625 -4.09375 C 7.289062 -3.414062 8.289062 -3.078125 9.40625 -3.078125 C 10.238281 -3.078125 10.890625 -3.148438 11.359375 -3.296875 C 11.835938 -3.453125 12.210938 -3.617188 12.484375 -3.796875 C 12.765625 -3.972656 12.957031 -4.085938 13.0625 -4.140625 C 13.425781 -4.328125 13.769531 -4.421875 14.09375 -4.421875 C 14.53125 -4.421875 14.898438 -4.265625 15.203125 -3.953125 C 15.515625 -3.648438 15.671875 -3.296875 15.671875 -2.890625 C 15.671875 -2.335938 15.382812 -1.832031 14.8125 -1.375 C 14.238281 -0.90625 13.46875 -0.503906 12.5 -0.171875 C 11.539062 0.148438 10.566406 0.3125 9.578125 0.3125 C 7.859375 0.3125 6.359375 -0.046875 5.078125 -0.765625 C 3.796875 -1.484375 2.804688 -2.472656 2.109375 -3.734375 C 1.421875 -4.992188 1.078125 -6.410156 1.078125 -7.984375 C 1.078125 -9.742188 1.441406 -11.289062 2.171875 -12.625 C 2.910156 -13.957031 3.882812 -14.972656 5.09375 -15.671875 C 6.300781 -16.378906 7.59375 -16.734375 8.96875 -16.734375 C 10.320312 -16.734375 11.597656 -16.363281 12.796875 -15.625 C 13.992188 -14.894531 14.945312 -13.90625 15.65625 -12.65625 C 16.375 -11.40625 16.734375 -10.050781 16.734375 -8.59375 Z M 8.96875 -13.359375 C 6.59375 -13.359375 5.191406 -12.242188 4.765625 -10.015625 L 12.8125 -10.015625 L 12.8125 -10.234375 C 12.726562 -11.085938 12.304688 -11.820312 11.546875 -12.4375 C 10.785156 -13.050781 9.925781 -13.359375 8.96875 -13.359375 Z M 8.96875 -13.359375 "/></g></g></g><g fill="#299715" fill-opacity="1"><g transform="translate(178.075839, 174.012308)"><g><path d="M 16.734375 -8.59375 C 16.722656 -8.101562 16.53125 -7.703125 16.15625 -7.390625 C 15.789062 -7.085938 15.363281 -6.9375 14.875 -6.9375 L 4.734375 -6.9375 C 4.972656 -5.726562 5.53125 -4.78125 6.40625 -4.09375 C 7.289062 -3.414062 8.289062 -3.078125 9.40625 -3.078125 C 10.238281 -3.078125 10.890625 -3.148438 11.359375 -3.296875 C 11.835938 -3.453125 12.210938 -3.617188 12.484375 -3.796875 C 12.765625 -3.972656 12.957031 -4.085938 13.0625 -4.140625 C 13.425781 -4.328125 13.769531 -4.421875 14.09375 -4.421875 C 14.53125 -4.421875 14.898438 -4.265625 15.203125 -3.953125 C 15.515625 -3.648438 15.671875 -3.296875 15.671875 -2.890625 C 15.671875 -2.335938 15.382812 -1.832031 14.8125 -1.375 C 14.238281 -0.90625 13.46875 -0.503906 12.5 -0.171875 C 11.539062 0.148438 10.566406 0.3125 9.578125 0.3125 C 7.859375 0.3125 6.359375 -0.046875 5.078125 -0.765625 C 3.796875 -1.484375 2.804688 -2.472656 2.109375 -3.734375 C 1.421875 -4.992188 1.078125 -6.410156 1.078125 -7.984375 C 1.078125 -9.742188 1.441406 -11.289062 2.171875 -12.625 C 2.910156 -13.957031 3.882812 -14.972656 5.09375 -15.671875 C 6.300781 -16.378906 7.59375 -16.734375 8.96875 -16.734375 C 10.320312 -16.734375 11.597656 -16.363281 12.796875 -15.625 C 13.992188 -14.894531 14.945312 -13.90625 15.65625 -12.65625 C 16.375 -11.40625 16.734375 -10.050781 16.734375 -8.59375 Z M 8.96875 -13.359375 C 6.59375 -13.359375 5.191406 -12.242188 4.765625 -10.015625 L 12.8125 -10.015625 L 12.8125 -10.234375 C 12.726562 -11.085938 12.304688 -11.820312 11.546875 -12.4375 C 10.785156 -13.050781 9.925781 -13.359375 8.96875 -13.359375 Z M 8.96875 -13.359375 "/></g></g></g><g fill="#299715" fill-opacity="1"><g transform="translate(195.883623, 174.012308)"><g><path d="M 15.296875 -22.734375 C 15.828125 -22.734375 16.265625 -22.554688 16.609375 -22.203125 C 16.960938 -21.859375 17.140625 -21.410156 17.140625 -20.859375 L 17.140625 -1.875 C 17.140625 -1.34375 16.960938 -0.894531 16.609375 -0.53125 C 16.265625 -0.175781 15.828125 0 15.296875 0 C 14.765625 0 14.328125 -0.171875 13.984375 -0.515625 C 13.648438 -0.867188 13.472656 -1.3125 13.453125 -1.84375 C 12.941406 -1.25 12.25 -0.738281 11.375 -0.3125 C 10.507812 0.101562 9.59375 0.3125 8.625 0.3125 C 7.21875 0.3125 5.941406 -0.0507812 4.796875 -0.78125 C 3.648438 -1.507812 2.742188 -2.519531 2.078125 -3.8125 C 1.410156 -5.101562 1.078125 -6.566406 1.078125 -8.203125 C 1.078125 -9.835938 1.40625 -11.304688 2.0625 -12.609375 C 2.71875 -13.910156 3.613281 -14.921875 4.75 -15.640625 C 5.882812 -16.367188 7.140625 -16.734375 8.515625 -16.734375 C 9.492188 -16.734375 10.410156 -16.554688 11.265625 -16.203125 C 12.128906 -15.847656 12.859375 -15.394531 13.453125 -14.84375 L 13.453125 -20.859375 C 13.453125 -21.390625 13.625 -21.832031 13.96875 -22.1875 C 14.320312 -22.550781 14.765625 -22.734375 15.296875 -22.734375 Z M 9.09375 -3.078125 C 10.425781 -3.078125 11.507812 -3.5625 12.34375 -4.53125 C 13.1875 -5.5 13.609375 -6.722656 13.609375 -8.203125 C 13.609375 -9.671875 13.1875 -10.894531 12.34375 -11.875 C 11.507812 -12.863281 10.425781 -13.359375 9.09375 -13.359375 C 7.78125 -13.359375 6.703125 -12.863281 5.859375 -11.875 C 5.023438 -10.894531 4.609375 -9.671875 4.609375 -8.203125 C 4.609375 -6.722656 5.019531 -5.5 5.84375 -4.53125 C 6.675781 -3.5625 7.757812 -3.078125 9.09375 -3.078125 Z M 9.09375 -3.078125 "/></g></g></g><g fill="#1f351b" fill-opacity="1"><g transform="translate(215.01645, 174.012308)"><g><path d="M 17.78125 -8.203125 C 17.78125 -6.566406 17.410156 -5.097656 16.671875 -3.796875 C 15.941406 -2.492188 14.9375 -1.484375 13.65625 -0.765625 C 12.375 -0.046875 10.96875 0.3125 9.4375 0.3125 C 7.875 0.3125 6.457031 -0.046875 5.1875 -0.765625 C 3.914062 -1.484375 2.910156 -2.492188 2.171875 -3.796875 C 1.441406 -5.097656 1.078125 -6.566406 1.078125 -8.203125 C 1.078125 -9.835938 1.441406 -11.304688 2.171875 -12.609375 C 2.910156 -13.910156 3.914062 -14.921875 5.1875 -15.640625 C 6.457031 -16.367188 7.875 -16.734375 9.4375 -16.734375 C 10.96875 -16.734375 12.375 -16.367188 13.65625 -15.640625 C 14.9375 -14.921875 15.941406 -13.910156 16.671875 -12.609375 C 17.410156 -11.304688 17.78125 -9.835938 17.78125 -8.203125 Z M 14.09375 -8.203125 C 14.09375 -9.203125 13.882812 -10.097656 13.46875 -10.890625 C 13.050781 -11.679688 12.488281 -12.289062 11.78125 -12.71875 C 11.070312 -13.144531 10.289062 -13.359375 9.4375 -13.359375 C 8.570312 -13.359375 7.785156 -13.144531 7.078125 -12.71875 C 6.367188 -12.289062 5.804688 -11.679688 5.390625 -10.890625 C 4.972656 -10.097656 4.765625 -9.203125 4.765625 -8.203125 C 4.765625 -7.203125 4.972656 -6.3125 5.390625 -5.53125 C 5.804688 -4.75 6.367188 -4.144531 7.078125 -3.71875 C 7.785156 -3.289062 8.570312 -3.078125 9.4375 -3.078125 C 10.289062 -3.078125 11.070312 -3.289062 11.78125 -3.71875 C 12.488281 -4.144531 13.050781 -4.75 13.46875 -5.53125 C 13.882812 -6.3125 14.09375 -7.203125 14.09375 -8.203125 Z M 14.09375 -8.203125 "/></g></g></g><g fill="#1f351b" fill-opacity="1"><g transform="translate(233.868129, 174.012308)"><g><path d="M 9.890625 -19.46875 C 9.191406 -19.46875 8.695312 -19.269531 8.40625 -18.875 C 8.125 -18.476562 7.984375 -18.046875 7.984375 -17.578125 L 7.984375 -16.125 L 10.78125 -16.125 C 11.269531 -16.125 11.675781 -15.960938 12 -15.640625 C 12.332031 -15.328125 12.5 -14.925781 12.5 -14.4375 C 12.5 -13.945312 12.332031 -13.539062 12 -13.21875 C 11.675781 -12.90625 11.269531 -12.75 10.78125 -12.75 L 7.984375 -12.75 L 7.984375 -1.875 C 7.984375 -1.34375 7.804688 -0.894531 7.453125 -0.53125 C 7.109375 -0.175781 6.671875 0 6.140625 0 C 5.609375 0 5.164062 -0.175781 4.8125 -0.53125 C 4.46875 -0.894531 4.296875 -1.34375 4.296875 -1.875 L 4.296875 -12.75 L 2.640625 -12.75 C 2.148438 -12.75 1.738281 -12.90625 1.40625 -13.21875 C 1.082031 -13.539062 0.921875 -13.945312 0.921875 -14.4375 C 0.921875 -14.925781 1.082031 -15.328125 1.40625 -15.640625 C 1.738281 -15.960938 2.148438 -16.125 2.640625 -16.125 L 4.296875 -16.125 L 4.296875 -17.546875 C 4.296875 -19.078125 4.820312 -20.320312 5.875 -21.28125 C 6.9375 -22.25 8.457031 -22.734375 10.4375 -22.734375 C 11.195312 -22.734375 11.859375 -22.578125 12.421875 -22.265625 C 12.984375 -21.960938 13.265625 -21.492188 13.265625 -20.859375 C 13.265625 -20.367188 13.117188 -19.96875 12.828125 -19.65625 C 12.546875 -19.351562 12.203125 -19.203125 11.796875 -19.203125 C 11.691406 -19.203125 11.582031 -19.210938 11.46875 -19.234375 C 11.351562 -19.253906 11.238281 -19.273438 11.125 -19.296875 C 10.632812 -19.410156 10.222656 -19.46875 9.890625 -19.46875 Z M 9.890625 -19.46875 "/></g></g></g><g fill="#299715" fill-opacity="1"><g transform="translate(246.680511, 174.012308)"><g><path d="M 17.359375 -20.453125 C 17.992188 -20.128906 18.3125 -19.609375 18.3125 -18.890625 C 18.3125 -18.460938 18.15625 -18.039062 17.84375 -17.625 C 17.519531 -17.195312 17.101562 -16.984375 16.59375 -16.984375 C 16.238281 -16.984375 15.890625 -17.078125 15.546875 -17.265625 C 14.535156 -17.734375 13.445312 -17.96875 12.28125 -17.96875 C 10.851562 -17.96875 9.601562 -17.664062 8.53125 -17.0625 C 7.46875 -16.457031 6.648438 -15.609375 6.078125 -14.515625 C 5.503906 -13.421875 5.21875 -12.164062 5.21875 -10.75 C 5.21875 -8.332031 5.867188 -6.5 7.171875 -5.25 C 8.472656 -4 10.175781 -3.375 12.28125 -3.375 C 13.53125 -3.375 14.617188 -3.609375 15.546875 -4.078125 C 15.910156 -4.242188 16.238281 -4.328125 16.53125 -4.328125 C 17.0625 -4.328125 17.507812 -4.101562 17.875 -3.65625 C 18.1875 -3.269531 18.34375 -2.847656 18.34375 -2.390625 C 18.34375 -2.066406 18.257812 -1.769531 18.09375 -1.5 C 17.925781 -1.238281 17.691406 -1.035156 17.390625 -0.890625 C 15.785156 -0.0859375 14.082031 0.3125 12.28125 0.3125 C 10.28125 0.3125 8.4375 -0.113281 6.75 -0.96875 C 5.070312 -1.820312 3.734375 -3.078125 2.734375 -4.734375 C 1.734375 -6.390625 1.234375 -8.394531 1.234375 -10.75 C 1.234375 -12.84375 1.707031 -14.71875 2.65625 -16.375 C 3.601562 -18.03125 4.914062 -19.320312 6.59375 -20.25 C 8.28125 -21.1875 10.175781 -21.65625 12.28125 -21.65625 C 14.101562 -21.65625 15.796875 -21.253906 17.359375 -20.453125 Z M 17.359375 -20.453125 "/></g></g></g><g fill="#299715" fill-opacity="1"><g transform="translate(265.931337, 174.012308)"><g><path d="M 17.78125 -8.203125 C 17.78125 -6.566406 17.410156 -5.097656 16.671875 -3.796875 C 15.941406 -2.492188 14.9375 -1.484375 13.65625 -0.765625 C 12.375 -0.046875 10.96875 0.3125 9.4375 0.3125 C 7.875 0.3125 6.457031 -0.046875 5.1875 -0.765625 C 3.914062 -1.484375 2.910156 -2.492188 2.171875 -3.796875 C 1.441406 -5.097656 1.078125 -6.566406 1.078125 -8.203125 C 1.078125 -9.835938 1.441406 -11.304688 2.171875 -12.609375 C 2.910156 -13.910156 3.914062 -14.921875 5.1875 -15.640625 C 6.457031 -16.367188 7.875 -16.734375 9.4375 -16.734375 C 10.96875 -16.734375 12.375 -16.367188 13.65625 -15.640625 C 14.9375 -14.921875 15.941406 -13.910156 16.671875 -12.609375 C 17.410156 -11.304688 17.78125 -9.835938 17.78125 -8.203125 Z M 14.09375 -8.203125 C 14.09375 -9.203125 13.882812 -10.097656 13.46875 -10.890625 C 13.050781 -11.679688 12.488281 -12.289062 11.78125 -12.71875 C 11.070312 -13.144531 10.289062 -13.359375 9.4375 -13.359375 C 8.570312 -13.359375 7.785156 -13.144531 7.078125 -12.71875 C 6.367188 -12.289062 5.804688 -11.679688 5.390625 -10.890625 C 4.972656 -10.097656 4.765625 -9.203125 4.765625 -8.203125 C 4.765625 -7.203125 4.972656 -6.3125 5.390625 -5.53125 C 5.804688 -4.75 6.367188 -4.144531 7.078125 -3.71875 C 7.785156 -3.289062 8.570312 -3.078125 9.4375 -3.078125 C 10.289062 -3.078125 11.070312 -3.289062 11.78125 -3.71875 C 12.488281 -4.144531 13.050781 -4.75 13.46875 -5.53125 C 13.882812 -6.3125 14.09375 -7.203125 14.09375 -8.203125 Z M 14.09375 -8.203125 "/></g></g></g><g fill="#299715" fill-opacity="1"><g transform="translate(284.783016, 174.012308)"><g><path d="M 15.296875 -22.734375 C 15.828125 -22.734375 16.265625 -22.554688 16.609375 -22.203125 C 16.960938 -21.859375 17.140625 -21.410156 17.140625 -20.859375 L 17.140625 -1.875 C 17.140625 -1.34375 16.960938 -0.894531 16.609375 -0.53125 C 16.265625 -0.175781 15.828125 0 15.296875 0 C 14.765625 0 14.328125 -0.171875 13.984375 -0.515625 C 13.648438 -0.867188 13.472656 -1.3125 13.453125 -1.84375 C 12.941406 -1.25 12.25 -0.738281 11.375 -0.3125 C 10.507812 0.101562 9.59375 0.3125 8.625 0.3125 C 7.21875 0.3125 5.941406 -0.0507812 4.796875 -0.78125 C 3.648438 -1.507812 2.742188 -2.519531 2.078125 -3.8125 C 1.410156 -5.101562 1.078125 -6.566406 1.078125 -8.203125 C 1.078125 -9.835938 1.40625 -11.304688 2.0625 -12.609375 C 2.71875 -13.910156 3.613281 -14.921875 4.75 -15.640625 C 5.882812 -16.367188 7.140625 -16.734375 8.515625 -16.734375 C 9.492188 -16.734375 10.410156 -16.554688 11.265625 -16.203125 C 12.128906 -15.847656 12.859375 -15.394531 13.453125 -14.84375 L 13.453125 -20.859375 C 13.453125 -21.390625 13.625 -21.832031 13.96875 -22.1875 C 14.320312 -22.550781 14.765625 -22.734375 15.296875 -22.734375 Z M 9.09375 -3.078125 C 10.425781 -3.078125 11.507812 -3.5625 12.34375 -4.53125 C 13.1875 -5.5 13.609375 -6.722656 13.609375 -8.203125 C 13.609375 -9.671875 13.1875 -10.894531 12.34375 -11.875 C 11.507812 -12.863281 10.425781 -13.359375 9.09375 -13.359375 C 7.78125 -13.359375 6.703125 -12.863281 5.859375 -11.875 C 5.023438 -10.894531 4.609375 -9.671875 4.609375 -8.203125 C 4.609375 -6.722656 5.019531 -5.5 5.84375 -4.53125 C 6.675781 -3.5625 7.757812 -3.078125 9.09375 -3.078125 Z M 9.09375 -3.078125 "/></g></g></g><g fill="#299715" fill-opacity="1"><g transform="translate(303.911025, 174.012308)"><g><path d="M 16.734375 -8.59375 C 16.722656 -8.101562 16.53125 -7.703125 16.15625 -7.390625 C 15.789062 -7.085938 15.363281 -6.9375 14.875 -6.9375 L 4.734375 -6.9375 C 4.972656 -5.726562 5.53125 -4.78125 6.40625 -4.09375 C 7.289062 -3.414062 8.289062 -3.078125 9.40625 -3.078125 C 10.238281 -3.078125 10.890625 -3.148438 11.359375 -3.296875 C 11.835938 -3.453125 12.210938 -3.617188 12.484375 -3.796875 C 12.765625 -3.972656 12.957031 -4.085938 13.0625 -4.140625 C 13.425781 -4.328125 13.769531 -4.421875 14.09375 -4.421875 C 14.53125 -4.421875 14.898438 -4.265625 15.203125 -3.953125 C 15.515625 -3.648438 15.671875 -3.296875 15.671875 -2.890625 C 15.671875 -2.335938 15.382812 -1.832031 14.8125 -1.375 C 14.238281 -0.90625 13.46875 -0.503906 12.5 -0.171875 C 11.539062 0.148438 10.566406 0.3125 9.578125 0.3125 C 7.859375 0.3125 6.359375 -0.046875 5.078125 -0.765625 C 3.796875 -1.484375 2.804688 -2.472656 2.109375 -3.734375 C 1.421875 -4.992188 1.078125 -6.410156 1.078125 -7.984375 C 1.078125 -9.742188 1.441406 -11.289062 2.171875 -12.625 C 2.910156 -13.957031 3.882812 -14.972656 5.09375 -15.671875 C 6.300781 -16.378906 7.59375 -16.734375 8.96875 -16.734375 C 10.320312 -16.734375 11.597656 -16.363281 12.796875 -15.625 C 13.992188 -14.894531 14.945312 -13.90625 15.65625 -12.65625 C 16.375 -11.40625 16.734375 -10.050781 16.734375 -8.59375 Z M 8.96875 -13.359375 C 6.59375 -13.359375 5.191406 -12.242188 4.765625 -10.015625 L 12.8125 -10.015625 L 12.8125 -10.234375 C 12.726562 -11.085938 12.304688 -11.820312 11.546875 -12.4375 C 10.785156 -13.050781 9.925781 -13.359375 8.96875 -13.359375 Z M 8.96875 -13.359375 "/></g></g></g><g fill="#299715" fill-opacity="1"><g transform="translate(321.718808, 174.012308)"><g><path d="M 3.625 -0.03125 C 3.03125 -0.03125 2.570312 -0.1875 2.25 -0.5 C 1.9375 -0.820312 1.78125 -1.28125 1.78125 -1.875 L 1.78125 -2.390625 C 1.78125 -2.984375 1.9375 -3.4375 2.25 -3.75 C 2.570312 -4.070312 3.03125 -4.234375 3.625 -4.234375 L 4.03125 -4.234375 C 4.625 -4.234375 5.078125 -4.070312 5.390625 -3.75 C 5.710938 -3.4375 5.875 -2.984375 5.875 -2.390625 L 5.875 -1.875 C 5.875 -1.28125 5.710938 -0.820312 5.390625 -0.5 C 5.078125 -0.1875 4.625 -0.03125 4.03125 -0.03125 Z M 3.625 -0.03125 "/></g></g></g><g clip-path="url(#9924ecaf2f)"><path fill="#67c656" d="M 106.878906 151.695312 C 106.554688 151.757812 106.207031 151.832031 105.988281 152.082031 C 105.882812 152.207031 105.816406 152.363281 105.777344 152.523438 C 105.589844 153.253906 105.871094 154.03125 105.734375 154.769531 C 105.636719 155.292969 105.332031 155.738281 104.96875 156.113281 C 104.414062 156.6875 103.230469 157.648438 102.527344 156.761719 C 102.167969 156.3125 102.101562 155.675781 102.078125 155.121094 C 102.050781 154.519531 102.164062 153.910156 102.425781 153.367188 C 102.972656 152.234375 104.203125 151.4375 105.457031 151.519531 C 105.933594 151.550781 106.402344 151.699219 106.878906 151.695312 Z M 92.78125 153.972656 C 93.125 154.445312 93.542969 154.867188 94.011719 155.222656 C 94.640625 155.703125 95.363281 156.070312 96.121094 156.304688 C 96.347656 156.378906 96.582031 156.4375 96.816406 156.484375 C 97.328125 156.585938 98.136719 156.71875 98.46875 156.175781 C 98.539062 156.050781 98.566406 155.910156 98.601562 155.773438 C 98.738281 155.214844 98.699219 154.640625 98.699219 154.074219 C 98.699219 153.636719 98.675781 153.195312 98.609375 152.757812 C 98.464844 151.835938 98.109375 150.917969 97.449219 150.257812 C 96.570312 149.378906 95.246094 149.035156 94.421875 148.101562 C 94.242188 147.898438 94.089844 147.664062 94.019531 147.402344 C 94.003906 147.335938 93.992188 147.269531 93.984375 147.203125 C 93.949219 146.871094 93.5625 146.722656 93.328125 146.960938 C 93.128906 147.167969 92.933594 147.375 92.757812 147.601562 C 91.476562 149.234375 91.414062 151.660156 92.449219 153.460938 C 92.550781 153.636719 92.660156 153.808594 92.78125 153.972656 Z M 99.347656 168.621094 C 99.59375 169.316406 99.921875 170.019531 100.03125 170.753906 C 100.125 171.359375 100.128906 171.980469 100.046875 172.585938 C 99.878906 173.78125 99.335938 174.980469 98.277344 175.628906 C 98.234375 175.652344 98.191406 175.679688 98.148438 175.703125 C 96.835938 176.425781 95.128906 176.253906 93.710938 175.980469 C 93.546875 175.949219 92.058594 175.519531 92.117188 175.371094 C 92.234375 175.085938 92.824219 174.878906 93.078125 174.714844 C 93.914062 174.179688 94.738281 173.632812 95.566406 173.082031 C 96.621094 172.382812 97.691406 171.722656 98.503906 170.730469 C 99.007812 170.121094 99.320312 169.417969 99.347656 168.621094 " fill-opacity="1" fill-rule="nonzero"/></g><g clip-path="url(#007fc55268)"><path fill="#4a2a1f" d="M 99.273438 173.984375 C 99.417969 173.925781 99.570312 173.847656 99.71875 173.8125 C 99.746094 173.910156 99.644531 174.078125 99.59375 174.164062 C 99.535156 174.277344 99.464844 174.382812 99.394531 174.488281 C 99.253906 174.699219 99.082031 174.949219 98.902344 175.128906 C 98.058594 175.964844 96.859375 176.265625 95.703125 176.386719 C 94.53125 176.507812 93.34375 176.386719 92.203125 176.097656 C 88.613281 175.191406 86.019531 172.851562 86.410156 170.871094 C 86.335938 170.582031 86.300781 170.292969 86.316406 170 C 86.410156 167.867188 88.867188 165.96875 92.25 165.726562 C 96.253906 165.441406 99.976562 167.515625 99.847656 170.410156 C 99.839844 170.625 99.808594 170.835938 99.753906 171.042969 C 99.714844 171.195312 99.664062 171.347656 99.59375 171.492188 C 99.425781 171.851562 99.1875 172.179688 98.941406 172.488281 C 98.6875 172.800781 98.402344 173.09375 98.074219 173.328125 C 97.746094 173.5625 97.390625 173.75 97.027344 173.917969 C 96.441406 174.1875 95.816406 174.378906 95.183594 174.507812 C 95.75 174.542969 96.300781 174.546875 96.828125 174.5 C 97.675781 174.421875 98.476562 174.292969 99.273438 173.984375 " fill-opacity="1" fill-rule="nonzero"/></g><path fill="#67c656" d="M 104.621094 165.285156 C 104.375 168.433594 102.425781 171.015625 100.199219 173.113281 C 100.046875 173.257812 99.886719 173.402344 99.6875 173.460938 C 99.488281 173.523438 99.238281 173.464844 99.136719 173.285156 C 99.121094 173.253906 99.109375 173.226562 99.101562 173.195312 C 99.050781 172.980469 99.199219 172.742188 99.34375 172.554688 C 100.632812 170.886719 102.03125 169.351562 102.789062 167.367188 C 103.582031 165.28125 103.734375 162.710938 102.664062 160.65625 C 101.699219 158.816406 99.828125 157.699219 98.175781 156.523438 C 98.074219 156.449219 97.96875 156.375 97.867188 156.300781 C 95.671875 154.695312 93.960938 152.472656 93.460938 149.78125 C 93.445312 149.691406 93.574219 149.652344 93.609375 149.738281 C 94.582031 152.035156 96.042969 153.914062 98.105469 155.378906 C 98.277344 155.5 98.453125 155.621094 98.628906 155.742188 C 100.128906 156.765625 101.714844 157.730469 102.863281 159.160156 C 102.871094 159.175781 102.882812 159.191406 102.890625 159.203125 C 102.851562 158.574219 102.875 157.941406 102.953125 157.3125 C 103.117188 155.929688 103.558594 154.582031 104.253906 153.375 C 103.578125 154.546875 103.316406 155.941406 103.289062 157.285156 C 103.285156 157.367188 103.28125 157.449219 103.28125 157.527344 C 103.28125 158.554688 103.5 159.484375 103.773438 160.421875 C 103.917969 160.910156 104.078125 161.398438 104.230469 161.898438 C 104.570312 162.996094 104.707031 164.140625 104.621094 165.285156 " fill-opacity="1" fill-rule="nonzero"/><g clip-path="url(#153825460b)"><path fill="#211d1d" d="M 56.160156 159.628906 L 85.664062 141.910156 C 86.105469 141.664062 86.601562 141.539062 87.144531 141.539062 C 87.960938 141.539062 88.660156 141.832031 89.238281 142.410156 C 89.820312 142.992188 90.109375 143.691406 90.109375 144.503906 C 90.109375 145.566406 89.605469 146.433594 88.589844 147.101562 L 63.238281 162.296875 L 88.589844 177.492188 C 89.605469 178.160156 90.109375 179.023438 90.109375 180.085938 C 90.109375 180.902344 89.820312 181.601562 89.238281 182.179688 C 88.660156 182.761719 87.960938 183.050781 87.144531 183.050781 C 86.601562 183.050781 86.105469 182.929688 85.664062 182.683594 L 56.160156 164.964844 C 55.070312 164.273438 54.527344 163.382812 54.527344 162.296875 C 54.527344 161.210938 55.070312 160.320312 56.160156 159.628906 " fill-opacity="1" fill-rule="nonzero"/></g><g clip-path="url(#4c86799bf6)"><path fill="#211d1d" d="M 137.664062 160.453125 L 108.160156 142.738281 C 107.714844 142.492188 107.21875 142.367188 106.675781 142.367188 C 105.863281 142.367188 105.164062 142.65625 104.582031 143.238281 C 104.003906 143.820312 103.710938 144.515625 103.710938 145.332031 C 103.710938 146.394531 104.21875 147.261719 105.230469 147.925781 L 130.582031 163.125 L 105.230469 178.320312 C 104.21875 178.988281 103.710938 179.851562 103.710938 180.914062 C 103.710938 181.730469 104.003906 182.425781 104.582031 183.007812 C 105.164062 183.589844 105.863281 183.878906 106.675781 183.878906 C 107.21875 183.878906 107.714844 183.753906 108.160156 183.507812 L 137.664062 165.792969 C 138.75 165.097656 139.292969 164.210938 139.292969 163.125 C 139.292969 162.035156 138.75 161.144531 137.664062 160.453125 " fill-opacity="1" fill-rule="nonzero"/></g><g fill="#000000" fill-opacity="1"><g transform="translate(236.298491, 183.774551)"><g><path d="M 3.15625 -5.890625 C 3.414062 -5.890625 3.644531 -5.851562 3.84375 -5.78125 C 4.039062 -5.71875 4.210938 -5.644531 4.359375 -5.5625 C 4.515625 -5.488281 4.640625 -5.421875 4.734375 -5.359375 C 4.828125 -5.296875 4.898438 -5.265625 4.953125 -5.265625 C 5.003906 -5.265625 5.054688 -5.285156 5.109375 -5.328125 L 5.203125 -5.28125 L 4.5625 -4.21875 L 4.453125 -4.296875 C 4.492188 -4.347656 4.515625 -4.414062 4.515625 -4.5 C 4.515625 -4.539062 4.476562 -4.597656 4.40625 -4.671875 C 4.34375 -4.753906 4.25 -4.832031 4.125 -4.90625 C 4.007812 -4.988281 3.863281 -5.054688 3.6875 -5.109375 C 3.507812 -5.171875 3.316406 -5.203125 3.109375 -5.203125 C 2.835938 -5.203125 2.59375 -5.144531 2.375 -5.03125 C 2.164062 -4.925781 1.984375 -4.769531 1.828125 -4.5625 C 1.679688 -4.363281 1.566406 -4.125 1.484375 -3.84375 C 1.410156 -3.5625 1.375 -3.25 1.375 -2.90625 C 1.375 -2.195312 1.53125 -1.640625 1.84375 -1.234375 C 2.15625 -0.828125 2.601562 -0.625 3.1875 -0.625 C 3.726562 -0.625 4.132812 -0.765625 4.40625 -1.046875 L 4.40625 -2.171875 L 3.296875 -2.171875 C 3.210938 -2.171875 3.15625 -2.148438 3.125 -2.109375 C 3.101562 -2.078125 3.082031 -2.019531 3.0625 -1.9375 L 2.9375 -1.9375 L 2.9375 -3.03125 L 3.0625 -3.03125 C 3.082031 -2.925781 3.109375 -2.859375 3.140625 -2.828125 C 3.179688 -2.796875 3.234375 -2.78125 3.296875 -2.78125 L 5.46875 -2.78125 L 5.46875 -2.65625 C 5.300781 -2.625 5.21875 -2.5 5.21875 -2.28125 L 5.21875 -1.359375 C 5.21875 -1.222656 5.222656 -1.128906 5.234375 -1.078125 C 5.253906 -1.035156 5.285156 -1.003906 5.328125 -0.984375 L 5.328125 -0.90625 C 5.203125 -0.769531 5.070312 -0.640625 4.9375 -0.515625 C 4.800781 -0.398438 4.644531 -0.296875 4.46875 -0.203125 C 4.300781 -0.117188 4.109375 -0.0507812 3.890625 0 C 3.671875 0.0390625 3.425781 0.0625 3.15625 0.0625 C 2.75 0.0625 2.382812 -0.0078125 2.0625 -0.15625 C 1.738281 -0.3125 1.460938 -0.523438 1.234375 -0.796875 C 1.015625 -1.066406 0.84375 -1.382812 0.71875 -1.75 C 0.601562 -2.113281 0.546875 -2.5 0.546875 -2.90625 C 0.546875 -3.332031 0.609375 -3.726562 0.734375 -4.09375 C 0.859375 -4.457031 1.03125 -4.769531 1.25 -5.03125 C 1.476562 -5.300781 1.753906 -5.507812 2.078125 -5.65625 C 2.398438 -5.8125 2.757812 -5.890625 3.15625 -5.890625 Z M 3.15625 -5.890625 "/></g></g></g><g fill="#000000" fill-opacity="1"><g transform="translate(242.448606, 183.774551)"><g><path d="M 2.796875 -2.671875 C 3.160156 -2.671875 3.441406 -2.738281 3.640625 -2.875 C 3.847656 -3.019531 3.953125 -3.25 3.953125 -3.5625 C 3.953125 -3.820312 3.851562 -4.015625 3.65625 -4.140625 C 3.457031 -4.273438 3.175781 -4.34375 2.8125 -4.34375 L 1.734375 -4.34375 L 1.734375 -2.671875 Z M 2.9375 -4.875 C 3.164062 -4.875 3.378906 -4.84375 3.578125 -4.78125 C 3.785156 -4.71875 3.960938 -4.628906 4.109375 -4.515625 C 4.265625 -4.398438 4.382812 -4.253906 4.46875 -4.078125 C 4.550781 -3.910156 4.59375 -3.71875 4.59375 -3.5 C 4.59375 -3.1875 4.5 -2.910156 4.3125 -2.671875 C 4.125 -2.441406 3.875 -2.300781 3.5625 -2.25 L 4.53125 -0.4375 C 4.582031 -0.320312 4.632812 -0.238281 4.6875 -0.1875 C 4.738281 -0.144531 4.8125 -0.125 4.90625 -0.125 L 4.90625 0 L 3.65625 0 L 3.65625 -0.125 C 3.707031 -0.132812 3.753906 -0.148438 3.796875 -0.171875 C 3.835938 -0.191406 3.859375 -0.222656 3.859375 -0.265625 C 3.859375 -0.304688 3.847656 -0.347656 3.828125 -0.390625 C 3.804688 -0.441406 3.785156 -0.488281 3.765625 -0.53125 L 2.921875 -2.109375 L 1.734375 -2.109375 L 1.734375 -0.546875 C 1.734375 -0.410156 1.75 -0.3125 1.78125 -0.25 C 1.8125 -0.1875 1.878906 -0.144531 1.984375 -0.125 L 1.984375 0 L 0.859375 0 L 0.859375 -0.125 C 0.929688 -0.144531 0.976562 -0.1875 1 -0.25 C 1.03125 -0.3125 1.046875 -0.40625 1.046875 -0.53125 L 1.046875 -4.34375 C 1.046875 -4.457031 1.03125 -4.546875 1 -4.609375 C 0.976562 -4.679688 0.929688 -4.722656 0.859375 -4.734375 L 0.859375 -4.875 Z M 2.9375 -4.875 "/></g></g></g><g fill="#000000" fill-opacity="1"><g transform="translate(247.979284, 183.774551)"><g><path d="M 1.265625 -2.4375 C 1.265625 -2.1875 1.289062 -1.941406 1.34375 -1.703125 C 1.394531 -1.472656 1.484375 -1.265625 1.609375 -1.078125 C 1.734375 -0.898438 1.890625 -0.753906 2.078125 -0.640625 C 2.273438 -0.523438 2.503906 -0.46875 2.765625 -0.46875 C 3.023438 -0.46875 3.25 -0.519531 3.4375 -0.625 C 3.632812 -0.738281 3.789062 -0.882812 3.90625 -1.0625 C 4.03125 -1.25 4.117188 -1.460938 4.171875 -1.703125 C 4.234375 -1.941406 4.265625 -2.1875 4.265625 -2.4375 C 4.265625 -2.65625 4.238281 -2.878906 4.1875 -3.109375 C 4.132812 -3.347656 4.050781 -3.5625 3.9375 -3.75 C 3.820312 -3.9375 3.664062 -4.09375 3.46875 -4.21875 C 3.28125 -4.34375 3.039062 -4.40625 2.75 -4.40625 C 2.5 -4.40625 2.28125 -4.347656 2.09375 -4.234375 C 1.90625 -4.128906 1.75 -3.988281 1.625 -3.8125 C 1.507812 -3.632812 1.421875 -3.425781 1.359375 -3.1875 C 1.296875 -2.945312 1.265625 -2.695312 1.265625 -2.4375 Z M 2.765625 -4.9375 C 3.109375 -4.9375 3.410156 -4.867188 3.671875 -4.734375 C 3.941406 -4.597656 4.171875 -4.414062 4.359375 -4.1875 C 4.546875 -3.957031 4.679688 -3.691406 4.765625 -3.390625 C 4.859375 -3.097656 4.90625 -2.785156 4.90625 -2.453125 C 4.90625 -2.097656 4.859375 -1.765625 4.765625 -1.453125 C 4.671875 -1.148438 4.53125 -0.882812 4.34375 -0.65625 C 4.164062 -0.4375 3.941406 -0.257812 3.671875 -0.125 C 3.410156 0 3.109375 0.0625 2.765625 0.0625 C 2.398438 0.0625 2.082031 -0.00390625 1.8125 -0.140625 C 1.550781 -0.285156 1.332031 -0.472656 1.15625 -0.703125 C 0.976562 -0.941406 0.84375 -1.207031 0.75 -1.5 C 0.664062 -1.800781 0.625 -2.101562 0.625 -2.40625 C 0.625 -2.757812 0.671875 -3.09375 0.765625 -3.40625 C 0.867188 -3.71875 1.007812 -3.984375 1.1875 -4.203125 C 1.375 -4.429688 1.597656 -4.609375 1.859375 -4.734375 C 2.128906 -4.867188 2.429688 -4.9375 2.765625 -4.9375 Z M 2.765625 -4.9375 "/></g></g></g><g fill="#000000" fill-opacity="1"><g transform="translate(253.509963, 183.774551)"><g><path d="M 1.4375 -4.875 L 1.4375 -4.734375 C 1.300781 -4.722656 1.234375 -4.675781 1.234375 -4.59375 C 1.234375 -4.519531 1.25 -4.421875 1.28125 -4.296875 L 2.125 -1.15625 L 2.140625 -1.15625 L 2.859375 -4.25 C 2.867188 -4.332031 2.875 -4.390625 2.875 -4.421875 C 2.882812 -4.460938 2.890625 -4.503906 2.890625 -4.546875 C 2.890625 -4.585938 2.878906 -4.625 2.859375 -4.65625 C 2.835938 -4.695312 2.789062 -4.722656 2.71875 -4.734375 L 2.71875 -4.875 L 3.921875 -4.875 L 3.921875 -4.734375 C 3.804688 -4.722656 3.75 -4.664062 3.75 -4.5625 C 3.75 -4.507812 3.769531 -4.410156 3.8125 -4.265625 L 4.609375 -1.15625 L 4.625 -1.15625 L 5.34375 -4.21875 C 5.363281 -4.320312 5.378906 -4.398438 5.390625 -4.453125 C 5.398438 -4.503906 5.40625 -4.550781 5.40625 -4.59375 C 5.40625 -4.6875 5.335938 -4.734375 5.203125 -4.734375 L 5.203125 -4.875 L 6.3125 -4.875 L 6.3125 -4.734375 C 6.132812 -4.734375 6.019531 -4.625 5.96875 -4.40625 L 5.09375 -0.65625 C 5.082031 -0.582031 5.066406 -0.519531 5.046875 -0.46875 C 5.035156 -0.414062 5.03125 -0.367188 5.03125 -0.328125 C 5.03125 -0.222656 5.070312 -0.15625 5.15625 -0.125 L 5.15625 0 L 4.078125 0 L 4.078125 -0.125 C 4.109375 -0.125 4.140625 -0.132812 4.171875 -0.15625 C 4.203125 -0.1875 4.21875 -0.222656 4.21875 -0.265625 C 4.21875 -0.316406 4.207031 -0.375 4.1875 -0.4375 C 4.164062 -0.507812 4.140625 -0.601562 4.109375 -0.71875 L 3.3125 -3.828125 L 3.28125 -3.828125 L 2.59375 -0.6875 C 2.570312 -0.601562 2.550781 -0.523438 2.53125 -0.453125 C 2.519531 -0.390625 2.515625 -0.332031 2.515625 -0.28125 C 2.515625 -0.207031 2.5625 -0.15625 2.65625 -0.125 L 2.65625 0 L 1.578125 0 L 1.578125 -0.09375 C 1.648438 -0.113281 1.6875 -0.164062 1.6875 -0.25 C 1.6875 -0.300781 1.675781 -0.367188 1.65625 -0.453125 C 1.632812 -0.546875 1.617188 -0.613281 1.609375 -0.65625 L 0.640625 -4.3125 C 0.609375 -4.4375 0.570312 -4.535156 0.53125 -4.609375 C 0.488281 -4.679688 0.414062 -4.722656 0.3125 -4.734375 L 0.3125 -4.875 Z M 1.4375 -4.875 "/></g></g></g><g fill="#000000" fill-opacity="1"><g transform="translate(260.268452, 183.774551)"><g><path d="M 1.3125 -1.015625 C 1.550781 -1.015625 1.734375 -0.941406 1.859375 -0.796875 C 1.992188 -0.660156 2.0625 -0.476562 2.0625 -0.25 C 2.0625 -0.0390625 2.023438 0.15625 1.953125 0.34375 C 1.878906 0.53125 1.78125 0.703125 1.65625 0.859375 C 1.53125 1.015625 1.382812 1.144531 1.21875 1.25 C 1.050781 1.351562 0.878906 1.414062 0.703125 1.4375 L 0.703125 1.125 C 0.941406 1.03125 1.140625 0.894531 1.296875 0.71875 C 1.453125 0.550781 1.53125 0.304688 1.53125 -0.015625 C 1.519531 -0.00390625 1.5 0 1.46875 0 C 1.445312 0.0078125 1.40625 0.015625 1.34375 0.015625 C 1.289062 0.015625 1.226562 0.0078125 1.15625 0 C 1.09375 -0.0078125 1.03125 -0.03125 0.96875 -0.0625 C 0.914062 -0.101562 0.867188 -0.148438 0.828125 -0.203125 C 0.796875 -0.265625 0.78125 -0.34375 0.78125 -0.4375 C 0.78125 -0.582031 0.828125 -0.710938 0.921875 -0.828125 C 1.015625 -0.953125 1.144531 -1.015625 1.3125 -1.015625 Z M 1.3125 -1.015625 "/></g></g></g><g fill="#000000" fill-opacity="1"><g transform="translate(263.033787, 183.774551)"><g/></g></g><g fill="#000000" fill-opacity="1"><g transform="translate(265.799122, 183.774551)"><g><path d="M 1.984375 -5.8125 L 1.984375 -5.6875 C 1.890625 -5.664062 1.828125 -5.625 1.796875 -5.5625 C 1.773438 -5.5 1.765625 -5.40625 1.765625 -5.28125 L 1.765625 -0.6875 L 4.21875 -0.6875 C 4.46875 -0.6875 4.601562 -0.765625 4.625 -0.921875 L 4.75 -0.921875 L 4.75 0.203125 L 4.625 0.203125 C 4.613281 0.117188 4.566406 0.0625 4.484375 0.03125 C 4.410156 0.0078125 4.328125 0 4.234375 0 L 0.703125 0 L 0.703125 -0.125 C 0.804688 -0.144531 0.867188 -0.179688 0.890625 -0.234375 C 0.921875 -0.296875 0.9375 -0.398438 0.9375 -0.546875 L 0.9375 -5.28125 C 0.9375 -5.40625 0.921875 -5.5 0.890625 -5.5625 C 0.867188 -5.625 0.804688 -5.664062 0.703125 -5.6875 L 0.703125 -5.8125 Z M 1.984375 -5.8125 "/></g></g></g><g fill="#000000" fill-opacity="1"><g transform="translate(270.710364, 183.774551)"><g><path d="M 4.234375 -4.078125 L 4.109375 -4.078125 C 4.085938 -4.171875 4.050781 -4.238281 4 -4.28125 C 3.945312 -4.320312 3.878906 -4.34375 3.796875 -4.34375 L 1.765625 -4.34375 L 1.765625 -2.75 L 3.078125 -2.75 C 3.171875 -2.75 3.238281 -2.765625 3.28125 -2.796875 C 3.332031 -2.835938 3.367188 -2.914062 3.390625 -3.03125 L 3.515625 -3.03125 L 3.515625 -1.953125 L 3.390625 -1.953125 C 3.367188 -2.054688 3.332031 -2.125 3.28125 -2.15625 C 3.226562 -2.195312 3.164062 -2.21875 3.09375 -2.21875 L 1.765625 -2.21875 L 1.765625 -0.53125 L 3.890625 -0.53125 C 3.984375 -0.53125 4.054688 -0.546875 4.109375 -0.578125 C 4.160156 -0.617188 4.191406 -0.695312 4.203125 -0.8125 L 4.34375 -0.8125 L 4.34375 0.203125 L 4.203125 0.203125 C 4.191406 0.117188 4.15625 0.0625 4.09375 0.03125 C 4.03125 0.0078125 3.921875 0 3.765625 0 L 0.890625 0 L 0.890625 -0.125 C 0.960938 -0.144531 1.007812 -0.1875 1.03125 -0.25 C 1.0625 -0.3125 1.078125 -0.40625 1.078125 -0.53125 L 1.078125 -4.34375 C 1.078125 -4.488281 1.0625 -4.585938 1.03125 -4.640625 C 1.007812 -4.691406 0.960938 -4.722656 0.890625 -4.734375 L 0.890625 -4.875 L 3.765625 -4.875 C 3.847656 -4.875 3.921875 -4.882812 3.984375 -4.90625 C 4.046875 -4.925781 4.085938 -4.976562 4.109375 -5.0625 L 4.234375 -5.0625 Z M 4.234375 -4.078125 "/></g></g></g><g fill="#000000" fill-opacity="1"><g transform="translate(275.621605, 183.774551)"><g><path d="M 1.6875 -1.859375 L 3.21875 -1.859375 L 2.484375 -4.375 L 2.453125 -4.375 Z M 3.171875 -4.875 L 3.171875 -4.734375 C 3.117188 -4.710938 3.09375 -4.648438 3.09375 -4.546875 C 3.09375 -4.503906 3.097656 -4.453125 3.109375 -4.390625 C 3.128906 -4.335938 3.160156 -4.25 3.203125 -4.125 L 4.375 -0.390625 C 4.414062 -0.242188 4.492188 -0.15625 4.609375 -0.125 L 4.609375 0 L 3.578125 0 L 3.578125 -0.125 C 3.617188 -0.132812 3.648438 -0.15625 3.671875 -0.1875 C 3.691406 -0.226562 3.703125 -0.265625 3.703125 -0.296875 C 3.703125 -0.316406 3.691406 -0.347656 3.671875 -0.390625 C 3.660156 -0.441406 3.644531 -0.507812 3.625 -0.59375 L 3.390625 -1.328125 L 1.5 -1.328125 L 1.296875 -0.671875 C 1.253906 -0.566406 1.222656 -0.484375 1.203125 -0.421875 C 1.191406 -0.359375 1.1875 -0.304688 1.1875 -0.265625 C 1.1875 -0.191406 1.238281 -0.144531 1.34375 -0.125 L 1.34375 0 L 0.3125 0 L 0.3125 -0.125 C 0.394531 -0.15625 0.457031 -0.195312 0.5 -0.25 C 0.539062 -0.300781 0.59375 -0.414062 0.65625 -0.59375 L 1.796875 -4.109375 C 1.847656 -4.285156 1.878906 -4.394531 1.890625 -4.4375 C 1.898438 -4.488281 1.90625 -4.523438 1.90625 -4.546875 C 1.90625 -4.628906 1.863281 -4.691406 1.78125 -4.734375 L 1.78125 -4.875 Z M 3.171875 -4.875 "/></g></g></g><g fill="#000000" fill-opacity="1"><g transform="translate(280.532847, 183.774551)"><g><path d="M 2.796875 -2.671875 C 3.160156 -2.671875 3.441406 -2.738281 3.640625 -2.875 C 3.847656 -3.019531 3.953125 -3.25 3.953125 -3.5625 C 3.953125 -3.820312 3.851562 -4.015625 3.65625 -4.140625 C 3.457031 -4.273438 3.175781 -4.34375 2.8125 -4.34375 L 1.734375 -4.34375 L 1.734375 -2.671875 Z M 2.9375 -4.875 C 3.164062 -4.875 3.378906 -4.84375 3.578125 -4.78125 C 3.785156 -4.71875 3.960938 -4.628906 4.109375 -4.515625 C 4.265625 -4.398438 4.382812 -4.253906 4.46875 -4.078125 C 4.550781 -3.910156 4.59375 -3.71875 4.59375 -3.5 C 4.59375 -3.1875 4.5 -2.910156 4.3125 -2.671875 C 4.125 -2.441406 3.875 -2.300781 3.5625 -2.25 L 4.53125 -0.4375 C 4.582031 -0.320312 4.632812 -0.238281 4.6875 -0.1875 C 4.738281 -0.144531 4.8125 -0.125 4.90625 -0.125 L 4.90625 0 L 3.65625 0 L 3.65625 -0.125 C 3.707031 -0.132812 3.753906 -0.148438 3.796875 -0.171875 C 3.835938 -0.191406 3.859375 -0.222656 3.859375 -0.265625 C 3.859375 -0.304688 3.847656 -0.347656 3.828125 -0.390625 C 3.804688 -0.441406 3.785156 -0.488281 3.765625 -0.53125 L 2.921875 -2.109375 L 1.734375 -2.109375 L 1.734375 -0.546875 C 1.734375 -0.410156 1.75 -0.3125 1.78125 -0.25 C 1.8125 -0.1875 1.878906 -0.144531 1.984375 -0.125 L 1.984375 0 L 0.859375 0 L 0.859375 -0.125 C 0.929688 -0.144531 0.976562 -0.1875 1 -0.25 C 1.03125 -0.3125 1.046875 -0.40625 1.046875 -0.53125 L 1.046875 -4.34375 C 1.046875 -4.457031 1.03125 -4.546875 1 -4.609375 C 0.976562 -4.679688 0.929688 -4.722656 0.859375 -4.734375 L 0.859375 -4.875 Z M 2.9375 -4.875 "/></g></g></g><g fill="#000000" fill-opacity="1"><g transform="translate(286.063525, 183.774551)"><g><path d="M 2.109375 -4.875 L 2.109375 -4.734375 C 1.992188 -4.722656 1.9375 -4.671875 1.9375 -4.578125 C 1.9375 -4.535156 1.953125 -4.488281 1.984375 -4.4375 L 3.921875 -1.3125 L 3.9375 -1.3125 L 3.9375 -4.328125 C 3.9375 -4.453125 3.921875 -4.546875 3.890625 -4.609375 C 3.867188 -4.679688 3.816406 -4.722656 3.734375 -4.734375 L 3.734375 -4.875 L 4.75 -4.875 L 4.75 -4.734375 C 4.675781 -4.722656 4.625 -4.6875 4.59375 -4.625 C 4.570312 -4.5625 4.5625 -4.46875 4.5625 -4.34375 L 4.5625 -0.546875 C 4.5625 -0.398438 4.578125 -0.296875 4.609375 -0.234375 C 4.640625 -0.179688 4.695312 -0.144531 4.78125 -0.125 L 4.78125 0 L 3.703125 0 L 3.703125 -0.125 C 3.742188 -0.125 3.78125 -0.128906 3.8125 -0.140625 C 3.84375 -0.160156 3.859375 -0.1875 3.859375 -0.21875 C 3.859375 -0.28125 3.820312 -0.367188 3.75 -0.484375 C 3.675781 -0.597656 3.5625 -0.785156 3.40625 -1.046875 L 1.609375 -3.953125 L 1.578125 -3.953125 L 1.578125 -0.53125 C 1.578125 -0.394531 1.59375 -0.296875 1.625 -0.234375 C 1.65625 -0.179688 1.710938 -0.144531 1.796875 -0.125 L 1.796875 0 L 0.703125 0 L 0.703125 -0.125 C 0.804688 -0.144531 0.875 -0.175781 0.90625 -0.21875 C 0.945312 -0.269531 0.96875 -0.367188 0.96875 -0.515625 L 0.96875 -4.328125 C 0.96875 -4.460938 0.953125 -4.5625 0.921875 -4.625 C 0.898438 -4.6875 0.847656 -4.722656 0.765625 -4.734375 L 0.765625 -4.875 Z M 2.109375 -4.875 "/></g></g></g><g fill="#000000" fill-opacity="1"><g transform="translate(291.594204, 183.774551)"><g><path d="M 1.3125 -1.015625 C 1.550781 -1.015625 1.734375 -0.941406 1.859375 -0.796875 C 1.992188 -0.660156 2.0625 -0.476562 2.0625 -0.25 C 2.0625 -0.0390625 2.023438 0.15625 1.953125 0.34375 C 1.878906 0.53125 1.78125 0.703125 1.65625 0.859375 C 1.53125 1.015625 1.382812 1.144531 1.21875 1.25 C 1.050781 1.351562 0.878906 1.414062 0.703125 1.4375 L 0.703125 1.125 C 0.941406 1.03125 1.140625 0.894531 1.296875 0.71875 C 1.453125 0.550781 1.53125 0.304688 1.53125 -0.015625 C 1.519531 -0.00390625 1.5 0 1.46875 0 C 1.445312 0.0078125 1.40625 0.015625 1.34375 0.015625 C 1.289062 0.015625 1.226562 0.0078125 1.15625 0 C 1.09375 -0.0078125 1.03125 -0.03125 0.96875 -0.0625 C 0.914062 -0.101562 0.867188 -0.148438 0.828125 -0.203125 C 0.796875 -0.265625 0.78125 -0.34375 0.78125 -0.4375 C 0.78125 -0.582031 0.828125 -0.710938 0.921875 -0.828125 C 1.015625 -0.953125 1.144531 -1.015625 1.3125 -1.015625 Z M 1.3125 -1.015625 "/></g></g></g><g fill="#000000" fill-opacity="1"><g transform="translate(294.359539, 183.774551)"><g/></g></g><g fill="#000000" fill-opacity="1"><g transform="translate(297.124874, 183.774551)"><g><path d="M 2.9375 -5.890625 C 3.0625 -5.890625 3.195312 -5.878906 3.34375 -5.859375 C 3.488281 -5.835938 3.644531 -5.796875 3.8125 -5.734375 C 4.125 -5.628906 4.359375 -5.507812 4.515625 -5.375 C 4.679688 -5.25 4.785156 -5.1875 4.828125 -5.1875 C 4.859375 -5.1875 4.878906 -5.1875 4.890625 -5.1875 C 4.898438 -5.195312 4.914062 -5.210938 4.9375 -5.234375 L 5.03125 -5.1875 L 4.359375 -4.21875 L 4.25 -4.28125 C 4.257812 -4.320312 4.265625 -4.351562 4.265625 -4.375 C 4.265625 -4.394531 4.265625 -4.421875 4.265625 -4.453125 C 4.265625 -4.523438 4.226562 -4.601562 4.15625 -4.6875 C 4.09375 -4.78125 4 -4.863281 3.875 -4.9375 C 3.757812 -5.007812 3.617188 -5.070312 3.453125 -5.125 C 3.296875 -5.175781 3.128906 -5.203125 2.953125 -5.203125 C 2.648438 -5.203125 2.390625 -5.132812 2.171875 -5 C 1.953125 -4.875 1.769531 -4.707031 1.625 -4.5 C 1.488281 -4.289062 1.390625 -4.046875 1.328125 -3.765625 C 1.265625 -3.492188 1.234375 -3.210938 1.234375 -2.921875 C 1.234375 -2.148438 1.398438 -1.570312 1.734375 -1.1875 C 2.066406 -0.8125 2.488281 -0.625 3 -0.625 C 3.175781 -0.625 3.34375 -0.648438 3.5 -0.703125 C 3.664062 -0.765625 3.8125 -0.835938 3.9375 -0.921875 C 4.070312 -1.003906 4.175781 -1.085938 4.25 -1.171875 C 4.320312 -1.265625 4.359375 -1.347656 4.359375 -1.421875 C 4.359375 -1.453125 4.351562 -1.492188 4.34375 -1.546875 C 4.332031 -1.597656 4.3125 -1.644531 4.28125 -1.6875 L 4.453125 -1.765625 L 5.203125 -0.71875 L 5.078125 -0.640625 C 5.015625 -0.703125 4.957031 -0.734375 4.90625 -0.734375 C 4.863281 -0.734375 4.816406 -0.707031 4.765625 -0.65625 C 4.710938 -0.613281 4.660156 -0.578125 4.609375 -0.546875 C 4.441406 -0.410156 4.226562 -0.273438 3.96875 -0.140625 C 3.707031 -0.00390625 3.390625 0.0625 3.015625 0.0625 C 2.609375 0.0625 2.242188 -0.0078125 1.921875 -0.15625 C 1.597656 -0.300781 1.328125 -0.503906 1.109375 -0.765625 C 0.890625 -1.023438 0.71875 -1.335938 0.59375 -1.703125 C 0.476562 -2.066406 0.421875 -2.46875 0.421875 -2.90625 C 0.421875 -3.332031 0.476562 -3.726562 0.59375 -4.09375 C 0.71875 -4.457031 0.882812 -4.769531 1.09375 -5.03125 C 1.3125 -5.300781 1.578125 -5.507812 1.890625 -5.65625 C 2.203125 -5.8125 2.550781 -5.890625 2.9375 -5.890625 Z M 2.9375 -5.890625 "/></g></g></g><g fill="#000000" fill-opacity="1"><g transform="translate(302.655553, 183.774551)"><g><path d="M 1.265625 -2.4375 C 1.265625 -2.1875 1.289062 -1.941406 1.34375 -1.703125 C 1.394531 -1.472656 1.484375 -1.265625 1.609375 -1.078125 C 1.734375 -0.898438 1.890625 -0.753906 2.078125 -0.640625 C 2.273438 -0.523438 2.503906 -0.46875 2.765625 -0.46875 C 3.023438 -0.46875 3.25 -0.519531 3.4375 -0.625 C 3.632812 -0.738281 3.789062 -0.882812 3.90625 -1.0625 C 4.03125 -1.25 4.117188 -1.460938 4.171875 -1.703125 C 4.234375 -1.941406 4.265625 -2.1875 4.265625 -2.4375 C 4.265625 -2.65625 4.238281 -2.878906 4.1875 -3.109375 C 4.132812 -3.347656 4.050781 -3.5625 3.9375 -3.75 C 3.820312 -3.9375 3.664062 -4.09375 3.46875 -4.21875 C 3.28125 -4.34375 3.039062 -4.40625 2.75 -4.40625 C 2.5 -4.40625 2.28125 -4.347656 2.09375 -4.234375 C 1.90625 -4.128906 1.75 -3.988281 1.625 -3.8125 C 1.507812 -3.632812 1.421875 -3.425781 1.359375 -3.1875 C 1.296875 -2.945312 1.265625 -2.695312 1.265625 -2.4375 Z M 2.765625 -4.9375 C 3.109375 -4.9375 3.410156 -4.867188 3.671875 -4.734375 C 3.941406 -4.597656 4.171875 -4.414062 4.359375 -4.1875 C 4.546875 -3.957031 4.679688 -3.691406 4.765625 -3.390625 C 4.859375 -3.097656 4.90625 -2.785156 4.90625 -2.453125 C 4.90625 -2.097656 4.859375 -1.765625 4.765625 -1.453125 C 4.671875 -1.148438 4.53125 -0.882812 4.34375 -0.65625 C 4.164062 -0.4375 3.941406 -0.257812 3.671875 -0.125 C 3.410156 0 3.109375 0.0625 2.765625 0.0625 C 2.398438 0.0625 2.082031 -0.00390625 1.8125 -0.140625 C 1.550781 -0.285156 1.332031 -0.472656 1.15625 -0.703125 C 0.976562 -0.941406 0.84375 -1.207031 0.75 -1.5 C 0.664062 -1.800781 0.625 -2.101562 0.625 -2.40625 C 0.625 -2.757812 0.671875 -3.09375 0.765625 -3.40625 C 0.867188 -3.71875 1.007812 -3.984375 1.1875 -4.203125 C 1.375 -4.429688 1.597656 -4.609375 1.859375 -4.734375 C 2.128906 -4.867188 2.429688 -4.9375 2.765625 -4.9375 Z M 2.765625 -4.9375 "/></g></g></g><g fill="#000000" fill-opacity="1"><g transform="translate(308.186231, 183.774551)"><g><path d="M 2.375 -0.53125 C 2.707031 -0.53125 2.988281 -0.5625 3.21875 -0.625 C 3.457031 -0.6875 3.644531 -0.789062 3.78125 -0.9375 C 3.925781 -1.09375 4.03125 -1.289062 4.09375 -1.53125 C 4.164062 -1.78125 4.203125 -2.082031 4.203125 -2.4375 C 4.203125 -2.738281 4.175781 -3.003906 4.125 -3.234375 C 4.082031 -3.460938 4 -3.660156 3.875 -3.828125 C 3.75 -3.992188 3.582031 -4.117188 3.375 -4.203125 C 3.175781 -4.296875 2.921875 -4.34375 2.609375 -4.34375 L 1.6875 -4.34375 L 1.6875 -0.53125 Z M 2.8125 -4.875 C 3.5 -4.875 4.015625 -4.65625 4.359375 -4.21875 C 4.710938 -3.789062 4.890625 -3.203125 4.890625 -2.453125 C 4.890625 -1.609375 4.703125 -0.988281 4.328125 -0.59375 C 3.953125 -0.195312 3.347656 0 2.515625 0 L 0.765625 0 L 0.765625 -0.125 C 0.867188 -0.144531 0.929688 -0.1875 0.953125 -0.25 C 0.984375 -0.3125 1 -0.410156 1 -0.546875 L 1 -4.328125 C 1 -4.472656 0.984375 -4.570312 0.953125 -4.625 C 0.921875 -4.6875 0.847656 -4.722656 0.734375 -4.734375 L 0.734375 -4.875 Z M 2.8125 -4.875 "/></g></g></g><g fill="#000000" fill-opacity="1"><g transform="translate(313.71691, 183.774551)"><g><path d="M 4.234375 -4.078125 L 4.109375 -4.078125 C 4.085938 -4.171875 4.050781 -4.238281 4 -4.28125 C 3.945312 -4.320312 3.878906 -4.34375 3.796875 -4.34375 L 1.765625 -4.34375 L 1.765625 -2.75 L 3.078125 -2.75 C 3.171875 -2.75 3.238281 -2.765625 3.28125 -2.796875 C 3.332031 -2.835938 3.367188 -2.914062 3.390625 -3.03125 L 3.515625 -3.03125 L 3.515625 -1.953125 L 3.390625 -1.953125 C 3.367188 -2.054688 3.332031 -2.125 3.28125 -2.15625 C 3.226562 -2.195312 3.164062 -2.21875 3.09375 -2.21875 L 1.765625 -2.21875 L 1.765625 -0.53125 L 3.890625 -0.53125 C 3.984375 -0.53125 4.054688 -0.546875 4.109375 -0.578125 C 4.160156 -0.617188 4.191406 -0.695312 4.203125 -0.8125 L 4.34375 -0.8125 L 4.34375 0.203125 L 4.203125 0.203125 C 4.191406 0.117188 4.15625 0.0625 4.09375 0.03125 C 4.03125 0.0078125 3.921875 0 3.765625 0 L 0.890625 0 L 0.890625 -0.125 C 0.960938 -0.144531 1.007812 -0.1875 1.03125 -0.25 C 1.0625 -0.3125 1.078125 -0.40625 1.078125 -0.53125 L 1.078125 -4.34375 C 1.078125 -4.488281 1.0625 -4.585938 1.03125 -4.640625 C 1.007812 -4.691406 0.960938 -4.722656 0.890625 -4.734375 L 0.890625 -4.875 L 3.765625 -4.875 C 3.847656 -4.875 3.921875 -4.882812 3.984375 -4.90625 C 4.046875 -4.925781 4.085938 -4.976562 4.109375 -5.0625 L 4.234375 -5.0625 Z M 4.234375 -4.078125 "/></g></g></g></svg>